<?xml version="1.0" encoding="utf-8"?>
<!-- Generator: Adobe Illustrator 25.3.1, SVG Export Plug-In . SVG Version: 6.00 Build 0)  -->
<svg version="1.1" id="Camada_1" xmlns="http://www.w3.org/2000/svg" xmlns:xlink="http://www.w3.org/1999/xlink" x="0px" y="0px"
	 viewBox="0 0 318 107.7" style="enable-background:new 0 0 318 107.7;" xml:space="preserve">
<style type="text/css">
	.st0{fill:#FFFFFF;}
	.st1{fill:url(#path142_1_);}
	.st2{fill:url(#path166_1_);}
	.st3{fill:url(#path190_1_);}
	.st4{fill:url(#path226_1_);}
	.st5{fill:url(#path310_1_);}
	.st6{fill:url(#path484_1_);}
	.st7{fill:url(#path506_1_);}
	.st8{fill:url(#path528_1_);}
	.st9{fill:url(#path562_1_);}
	.st10{fill:url(#path584_1_);}
	.st11{fill-rule:evenodd;clip-rule:evenodd;fill:#CFA60E;}
	.st12{fill:none;stroke:#CFA60E;stroke-width:0.288;stroke-miterlimit:3.484;}
	.st13{fill-rule:evenodd;clip-rule:evenodd;fill:#FBCC00;}
	.st14{fill-rule:evenodd;clip-rule:evenodd;fill:#FFFFFF;}
	.st15{fill:none;stroke:#FFFFFF;stroke-width:0.288;stroke-miterlimit:3.484;}
	.st16{fill:url(#path634_1_);}
	.st17{fill:url(#path656_1_);}
	.st18{fill:#FBCC00;}
	.st19{fill:none;stroke:#FBCC00;stroke-width:0.288;stroke-miterlimit:3.484;}
	.st20{fill-rule:evenodd;clip-rule:evenodd;fill:#B49776;}
	.st21{fill:none;stroke:#B49776;stroke-width:0.288;stroke-miterlimit:3.484;}
	.st22{fill-rule:evenodd;clip-rule:evenodd;fill:#EEDCB8;}
	.st23{fill:#77522F;}
	.st24{fill:#495961;}
</style>
<g>
	<g id="g660_1_">
		<g id="g698_1_" transform="translate(275.1353,98.9905)">
			<path id="path700_1_" class="st0" d="M-201.1-52.8c0.4-3.8,3.1-6.4,6.2-8.3l0.5-0.4l-10.2-13h-0.2c-1.2-0.2-2.5-0.4-3.7-0.6
				c-3.8-0.5-6.4-0.8-8.7-1.1c-0.6-0.1-1.3-0.1-1.9-0.2h-0.1h-0.6h-0.2h-0.2c-1.4-0.1-2.8-0.2-4.3-0.2l0,0l0,0c-0.2,0-0.3,0-0.5,0
				l0,0c-0.1,0-0.3,0-0.4,0c-5.2-0.1-9.8,0.1-13.1,0.3c-1.1,0.1-8.5,0.8-9.8,1h-0.2c-1.7,0.2-5.1,0.8-6.3,1l-10.3,12.8l0.5,0.4
				c3.1,2,5.8,4.6,6.2,8.3c0.4,3.7-1.6,8-3,11.4c-1.9,4.5-3.6,9-3.6,13.9c0,1.1,0.2,2.1,0.5,3.1c1,3.3,3.6,6,6.2,8.1
				c3.1,2.5,6.8,4.5,10.3,6.3c3.7,1.9,7.4,3.8,11,5.9c2.4,1.4,5.5,3.6,6.8,6l0.5,1l0.5-1c1.3-2.5,4.4-4.6,6.8-6
				c3.5-2.1,7.3-4,11-5.9c3.5-1.9,7.1-3.9,10.3-6.3c2.7-2.1,5.2-4.8,6.3-8.1c0.3-1,0.5-2.1,0.5-3.1c0-5-1.7-9.4-3.6-13.9
				C-199.5-44.8-201.5-49.1-201.1-52.8"/>
		</g>
	</g>
</g>
<g id="g120">
	<g id="g122">
		<g id="g128">
			<g id="g130">
				
					<linearGradient id="path142_1_" gradientUnits="userSpaceOnUse" x1="-1042.5231" y1="1.8626" x2="-1042.3401" y2="1.8626" gradientTransform="matrix(235.815 0 0 235.815 245866.6406 -429.5908)">
					<stop  offset="0" style="stop-color:#F0DDB7"/>
					<stop  offset="0.51" style="stop-color:#DDB866"/>
					<stop  offset="0.5238" style="stop-color:#DDB866"/>
					<stop  offset="1" style="stop-color:#F0DDB7"/>
				</linearGradient>
				<path id="path142" class="st1" d="M46.2,6.7L46.2,6.7L46.2,6.7L46.2,6.7L46.2,6.7L46.2,6.7L46.2,6.7L46.2,6.7L46.2,6.7L46.2,6.7
					L46.2,6.7L46.2,6.7L46.2,6.7L46.2,6.7L46.2,6.7L46.2,6.7L46.2,6.7L46.2,6.7L46.2,6.7L46.2,6.7L46.2,6.7L46.2,6.7L46.2,6.7
					L46.2,6.7L46.2,6.7L46.2,6.7L46.2,6.7L46.2,6.7L46.2,6.7L46.2,6.7c-0.8,0-1.6,0-2.3,0l0,0c-0.1,0-0.2,0.1-0.2,0.2l0,0v1.7
					c-1.3,0-2.6,0.1-3.9,0.1l0,0V7.2c0-0.1,0-0.1-0.1-0.2l0,0c-0.1,0-0.1-0.1-0.2-0.1l0,0c-1.4,0.1-2.9,0.2-4.4,0.4l0,0
					c-0.1,0-0.2,0.1-0.2,0.2l0,0v1.6c-1.3,0.1-2.5,0.3-3.7,0.5l0,0V8c0-0.1,0-0.1-0.1-0.2l0,0c-0.1,0-0.1-0.1-0.2-0.1l0,0
					C30,7.8,29,8.1,28,8.3l0,0c-0.6,0.1-1.1,0.2-1.7,0.3l0,0c-0.1,0-0.2,0.1-0.2,0.2l0,0v1.8v0.1l0,0c0.2,0.5,0.5,0.9,0.7,1.4l0,0
					c0,0.1,0.1,0.1,0.2,0.1l0,0h0.1l0,0c6.4-1,12.4-1.5,18.3-1.5l0,0c6.2,0,12.3,0.7,19.5,1.9l0,0l0,0l0,0c0.1,0,0.1,0,0.2-0.1l0,0
					c0.1,0,0.1-0.1,0.1-0.2l0,0v-0.2c0.2-0.4,0.4-0.7,0.6-1.1l0,0l0.1-0.3v-0.1l0,0V8.9c0-0.1-0.1-0.2-0.2-0.2l0,0L65,8.6
					c-1.2-0.2-2.5-0.5-3.7-0.7l0,0c-0.1,0-0.1,0-0.2,0.1l0,0C61,8,61,8.1,61,8.2l0,0v1v0.6c-1-0.1-2-0.2-3-0.3l0,0
					c-0.3,0-0.5-0.1-0.8-0.1l0,0V7.5c0-0.1-0.1-0.2-0.2-0.2l0,0c-1.4-0.1-2.9-0.3-4.4-0.4l0,0c-0.1,0-0.1,0-0.2,0.1l0,0
					c-0.1,0-0.1,0.1-0.1,0.2l0,0v1.6c-1.3-0.1-2.6-0.1-3.9-0.1l0,0V7c0-0.1-0.1-0.2-0.2-0.2l0,0C47.1,6.7,46.6,6.7,46.2,6.7
					L46.2,6.7L46.2,6.7z"/>
			</g>
		</g>
	</g>
</g>
<g id="g144">
	<g id="g146">
		<g id="g152">
			<g id="g154">
				
					<linearGradient id="path166_1_" gradientUnits="userSpaceOnUse" x1="-1042.1713" y1="2.0121" x2="-1041.9883" y2="2.0121" gradientTransform="matrix(211.9676 0 0 211.9676 220932.4531 -413.9976)">
					<stop  offset="0" style="stop-color:#CDAB5D"/>
					<stop  offset="0.51" style="stop-color:#BF9A36"/>
					<stop  offset="0.5238" style="stop-color:#BF9A36"/>
					<stop  offset="1" style="stop-color:#CDAB5D"/>
				</linearGradient>
				<path id="path166" class="st2" d="M26.1,12.5l1.7,1.7c0,0,8.8-1.5,17.3-1.5l0,0c8.4,0,17.8,1.5,17.8,1.5l0,0l1.2-1.1l0.3-0.6
					c0,0-7.8-1.7-18.5-1.7l0,0C35.2,10.8,26.1,12.5,26.1,12.5"/>
			</g>
		</g>
	</g>
</g>
<g id="g168">
	<g id="g170">
		<g id="g176">
			<g id="g178">
				
					<linearGradient id="path190_1_" gradientUnits="userSpaceOnUse" x1="-1042.3467" y1="1.7965" x2="-1042.1637" y2="1.7965" gradientTransform="matrix(223.1237 0 0 223.1237 232597.3594 -382.4853)">
					<stop  offset="0" style="stop-color:#E3C68C"/>
					<stop  offset="0.51" style="stop-color:#DFBC6F"/>
					<stop  offset="0.5238" style="stop-color:#DFBC6F"/>
					<stop  offset="1" style="stop-color:#E3C68C"/>
				</linearGradient>
				<path id="path190" class="st3" d="M29.3,14.1l-4,9.5c0,0,9.9-1.2,20.6-1.4l0,0c10.7-0.2,19.5,1.4,19.6,1.5l0,0
					c0-0.1-4.2-9.6-4.2-9.6l0,0c0,0-7.1-0.9-15.5-1.1l0,0c-0.6,0-1.2,0-1.8,0l0,0C36.3,12.9,29.3,14.1,29.3,14.1"/>
			</g>
		</g>
	</g>
</g>
<g id="g208">
	<g id="g210">
		<g id="g216">
			<g id="g218">
				
					<radialGradient id="path226_1_" cx="-1044.1768" cy="0.5352" r="9.147860e-02" gradientTransform="matrix(396.687 0 0 391.1947 414257.0625 -148.2711)" gradientUnits="userSpaceOnUse">
					<stop  offset="0" style="stop-color:#009E5E"/>
					<stop  offset="1" style="stop-color:#00813E"/>
				</radialGradient>
				<path id="path226" class="st4" d="M22,27.1l-7.3,9.2c2.8,2.3,4.9,5.2,5.3,9l0,0c0.5,4.5-1.5,9-3.2,13.1l0,0
					c-1.7,4-3.4,8.2-3.4,12.7l0,0c0,0.7,0.1,1.4,0.3,2.1l0,0c1.7,5.4,10.1,9.9,14.9,12.4l0,0c3.7,2,7.6,3.9,11.2,6.1l0,0
					c1.8,1.1,3.9,2.4,5.6,4l0,0c1.6-1.6,3.5-2.8,5.3-4l0,0c3.6-2.2,7.5-4.1,11.2-6.1l0,0c5-2.7,15.1-7.9,15.2-14.5l0,0V71
					c0-4.4-1.7-8.5-3.4-12.6l0,0c-1.7-4.1-3.6-8.6-3.1-13.1l0,0c0.4-3.8,2.5-6.6,5.3-8.9l0,0L68.5,27c-7.4-1.3-14.9-2-22.4-2l0,0
					C38,25.1,30,25.8,22,27.1"/>
			</g>
		</g>
	</g>
</g>
<g id="g292">
	<g id="g294">
		<g id="g300">
			<g id="g302">
				
					<radialGradient id="path310_1_" cx="-1043.3274" cy="0.8615" r="9.147860e-02" gradientTransform="matrix(281.823 0 0 282.3284 294072.6562 -189.6596)" gradientUnits="userSpaceOnUse">
					<stop  offset="0" style="stop-color:#E7F2E5"/>
					<stop  offset="1" style="stop-color:#6FC6EF"/>
				</radialGradient>
				<path id="path310" class="st5" d="M26,57.3h38.5c0.3-12.3-6.1-24.9-19.2-24.9l0,0C32.2,32.4,25.7,45,26,57.3"/>
			</g>
		</g>
	</g>
</g>
<g id="g464">
	<g id="g466">
		<g id="g472">
			<g id="g474">
				
					<linearGradient id="path484_1_" gradientUnits="userSpaceOnUse" x1="-1042.0211" y1="0.8639" x2="-1041.8381" y2="0.8639" gradientTransform="matrix(205.5195 0 0 205.5195 214180.1719 -109.2405)">
					<stop  offset="0" style="stop-color:#FFFFFF"/>
					<stop  offset="0.2636" style="stop-color:#FFFFFF"/>
					<stop  offset="1" style="stop-color:#FAD8A9"/>
				</linearGradient>
				<path id="path484" class="st6" d="M26,56.5c0,0.9,0,1.8,0.1,2.7l0,0c4.5,0.1,10.2-0.1,10.3,0.7l0,0c0,0.1,0.3,0.1,0.5,0l0,0
					c0.2-0.1,0.4-0.1,0.3,0l0,0c-2,2.3,0.5,6.2,3.1,8.2l0,0c8,6.2,5.1,9.7-1.4,11.1l0,0c1.9,0.7,4,1.1,6.4,1.1l0,0
					c7.4,0,12.7-4,15.8-9.6l0,0c-4.8-1.9-12.9-2.9-14.8-7.2l0,0c-0.6-1.4,3.2-4.1,3.8-5.2l0,0c1.2-2.2-6.4-1.7-6.2-1.9l0,0
					l-17.7-0.1C26.2,56.4,26.2,56.4,26,56.5"/>
			</g>
		</g>
	</g>
</g>
<g id="g486">
	<g id="g488">
		<g id="g494">
			<g id="g496">
				
					<linearGradient id="path506_1_" gradientUnits="userSpaceOnUse" x1="-1038.7255" y1="1.5834" x2="-1038.5426" y2="1.5834" gradientTransform="matrix(111.4592 0 0 111.4592 115801.6328 -108.0528)">
					<stop  offset="0" style="stop-color:#00A8B2"/>
					<stop  offset="0.2636" style="stop-color:#00A8B2"/>
					<stop  offset="1" style="stop-color:#6AC0C7"/>
				</linearGradient>
				<path id="path506" class="st7" d="M26,56.4L26,56.4c-1,5.2,1.3,13.4,6.1,18.5l0,0c3.9,4.2,9.5,6,11.8,5.7l0,0c0.2,0,0.3,0,0.5,0
					l0,0c0.2,0,0.4,0,0.5-0.1l0,0c4.9-9.3-13.1-19.7-0.3-23.8l0,0c0.9-0.3-0.7-0.4-3.4-0.4l0,0C36.8,56.1,29.4,56.4,26,56.4"/>
			</g>
		</g>
	</g>
</g>
<g id="g508">
	<g id="g510">
		<g id="g516">
			<g id="g518">
				
					<linearGradient id="path528_1_" gradientUnits="userSpaceOnUse" x1="-1041.59" y1="-10.6182" x2="-1041.407" y2="-10.6182" gradientTransform="matrix(0 64.2763 -64.2763 0 -627.6991 66994.0703)">
					<stop  offset="0" style="stop-color:#0D9E6C"/>
					<stop  offset="0.2636" style="stop-color:#0D9E6C"/>
					<stop  offset="1" style="stop-color:#007B45"/>
				</linearGradient>
				<path id="path528" class="st8" d="M62.2,45.3L62.2,45.3L62.2,45.3L62.2,45.3L62.2,45.3L62.2,45.3c-4.6,0-4.2,5.4-7.3,5.7l0,0
					c-0.7,0.1-2.6-0.5-3.9-0.8l0,0c-1.7-0.3-5.1,3.9-5.9,6.1l0,0h19.4c0-3.8-0.7-7.6-2-11l0,0C62.4,45.3,62.3,45.3,62.2,45.3
					L62.2,45.3L62.2,45.3z"/>
			</g>
		</g>
	</g>
</g>
<g id="g542">
	<g id="g544">
		<g id="g550">
			<g id="g552">
				
					<linearGradient id="path562_1_" gradientUnits="userSpaceOnUse" x1="-1039.8099" y1="1.6303" x2="-1039.627" y2="1.6303" gradientTransform="matrix(118.6239 0 0 118.6239 123389.5234 -128.6974)">
					<stop  offset="0" style="stop-color:#ECBC8F"/>
					<stop  offset="0.2636" style="stop-color:#ECBC8F"/>
					<stop  offset="1" style="stop-color:#D39557"/>
				</linearGradient>
				<path id="path562" class="st9" d="M46.4,67.1c3.2,3.3,8.9,3.7,13.2,5.9l0,0c3.2-4.4,4.8-10.3,4.9-16.2l0,0v-0.2l-19.4-0.2
					C43.4,59.1,42.4,62.9,46.4,67.1"/>
			</g>
		</g>
	</g>
</g>
<g id="g564">
	<g id="g566">
		<g id="g572">
			<g id="g574">
				
					<linearGradient id="path584_1_" gradientUnits="userSpaceOnUse" x1="-1037.1989" y1="-22.9355" x2="-1037.0159" y2="-22.9355" gradientTransform="matrix(0 28.8628 -28.8628 0 -602.6827 29987.6211)">
					<stop  offset="0" style="stop-color:#0D9E6C"/>
					<stop  offset="0.2636" style="stop-color:#0D9E6C"/>
					<stop  offset="1" style="stop-color:#007B45"/>
				</linearGradient>
				<path id="path584" class="st10" d="M60.2,51.1c-1.6,0.2-2.8,2.9-6,4.8l0,0h10.2c0-1.4-0.1-2.8-0.3-4.2l0,0
					c-1-0.1-2.5-0.5-3.6-0.6l0,0H60.2z"/>
			</g>
		</g>
	</g>
</g>
<g id="g314">
	<g id="g320" transform="translate(195.7456,280.0686)">
		<path id="path322" class="st11" d="M-169.7-224h10.8v0.5h-10.8v-0.1l0,0C-169.7-223.8-169.7-223.9-169.7-224"/>
	</g>
	<g id="g324" transform="translate(195.7456,280.0686)">
		<path id="path326" class="st12" d="M-169.7-224h10.8v0.5h-10.8v-0.1l0,0C-169.7-223.8-169.7-223.9-169.7-224z"/>
	</g>
	<g id="g328" transform="translate(196.125,288.6682)">
		<path id="path330" class="st11" d="M-170-234.7l10.8,2.1l-0.1,0.4l-10.7-2.1C-170-234.4-170-234.6-170-234.7"/>
	</g>
	<g id="g332" transform="translate(196.125,288.6682)">
		<path id="path334" class="st12" d="M-170-234.7l10.8,2.1l-0.1,0.4l-10.7-2.1C-170-234.4-170-234.6-170-234.7z"/>
	</g>
	<g id="g336" transform="translate(197.0996,297.6238)">
		<path id="path338" class="st11" d="M-170.7-245.9l10.6,4.3l-0.2,0.4l-10.5-4.3C-170.8-245.6-170.8-245.7-170.7-245.9"/>
	</g>
	<g id="g340" transform="translate(197.0996,297.6238)">
		<path id="path342" class="st12" d="M-170.7-245.9l10.6,4.3l-0.2,0.4l-10.5-4.3C-170.8-245.6-170.8-245.7-170.7-245.9z"/>
	</g>
	<g id="g344" transform="translate(198.8511,307.2986)">
		<path id="path346" class="st11" d="M-172.1-257.9l10.2,6.7l-0.3,0.4l-10.1-6.6C-172.1-257.6-172.1-257.7-172.1-257.9"/>
	</g>
	<g id="g348" transform="translate(198.8511,307.2986)">
		<path id="path350" class="st12" d="M-172.1-257.9l10.2,6.7l-0.3,0.4l-10.1-6.6C-172.1-257.6-172.1-257.7-172.1-257.9z"/>
	</g>
	<g id="g352" transform="translate(201.7471,318.0652)">
		<path id="path354" class="st11" d="M-174.2-271.3l9.5,9.4l-0.3,0.3l-9.4-9.2C-174.4-271-174.3-271.1-174.2-271.3"/>
	</g>
	<g id="g356" transform="translate(201.7471,318.0652)">
		<path id="path358" class="st12" d="M-174.2-271.3l9.5,9.4l-0.3,0.3l-9.4-9.2C-174.4-271-174.3-271.1-174.2-271.3z"/>
	</g>
	<g id="g360" transform="translate(206.4082,330.2117)">
		<path id="path362" class="st11" d="M-177.8-286.4l8.4,12.4l-0.4,0.3l-8.3-12.1C-177.9-286.1-177.8-286.2-177.8-286.4"/>
	</g>
	<g id="g364" transform="translate(206.4082,330.2117)">
		<path id="path366" class="st12" d="M-177.8-286.4l8.4,12.4l-0.4,0.3l-8.3-12.1C-177.9-286.1-177.8-286.2-177.8-286.4z"/>
	</g>
	<g id="g368" transform="translate(213.7935,343.6243)">
		<path id="path370" class="st11" d="M-183.4-303.1l6.6,15.7l-0.4,0.2l-6.5-15.4C-183.6-302.8-183.5-302.9-183.4-303.1"/>
	</g>
	<g id="g372" transform="translate(213.7935,343.6243)">
		<path id="path374" class="st12" d="M-183.4-303.1l6.6,15.7l-0.4,0.2l-6.5-15.4C-183.6-302.8-183.5-302.9-183.4-303.1z"/>
	</g>
	<g id="g376" transform="translate(225.0303,357.2473)">
		<path id="path378" class="st11" d="M-191.9-320l3.9,19.1l-0.5,0.1l-3.9-18.8C-192.1-319.8-192-319.9-191.9-320"/>
	</g>
	<g id="g380" transform="translate(225.0303,357.2473)">
		<path id="path382" class="st12" d="M-191.9-320l3.9,19.1l-0.5,0.1l-3.9-18.8C-192.1-319.8-192-319.9-191.9-320z"/>
	</g>
	<g id="g384" transform="translate(240.7212,368.741)">
		<path id="path386" class="st11" d="M-203.7-334.3l0.1,21.9h-0.5l-0.1-21.7C-204-334.2-203.9-334.2-203.7-334.3"/>
	</g>
	<g id="g388" transform="translate(240.7212,368.741)">
		<path id="path390" class="st12" d="M-203.7-334.3l0.1,21.9h-0.5l-0.1-21.7C-204-334.2-203.9-334.2-203.7-334.3z"/>
	</g>
	<g id="g392" transform="translate(260.1367,375.5667)">
		<path id="path394" class="st11" d="M-218.4-342.8l-4.7,23.6l-0.5-0.1l4.6-23.5C-218.7-342.8-218.6-342.8-218.4-342.8"/>
	</g>
	<g id="g396" transform="translate(260.1367,375.5667)">
		<path id="path398" class="st12" d="M-218.4-342.8l-4.7,23.6l-0.5-0.1l4.6-23.5C-218.7-342.8-218.6-342.8-218.4-342.8z"/>
	</g>
	<g id="g400" transform="translate(281.6157,376.6067)">
		<path id="path402" class="st11" d="M-234.6-344.1l-9.9,24l-0.4-0.2l9.9-23.8C-235-344.1-234.8-344.1-234.6-344.1"/>
	</g>
	<g id="g404" transform="translate(281.6157,376.6067)">
		<path id="path406" class="st12" d="M-234.6-344.1l-9.9,24l-0.4-0.2l9.9-23.8C-235-344.1-234.8-344.1-234.6-344.1z"/>
	</g>
	<g id="g408" transform="translate(303.1421,371.3216)">
		<path id="path410" class="st11" d="M-250.9-337.5l-15.2,22.7l-0.4-0.3l15.2-22.6C-251.2-337.7-251.1-337.6-250.9-337.5"/>
	</g>
	<g id="g412" transform="translate(303.1421,371.3216)">
		<path id="path414" class="st12" d="M-250.9-337.5l-15.2,22.7l-0.4-0.3l15.2-22.6C-251.2-337.7-251.1-337.6-250.9-337.5z"/>
	</g>
	<g id="g416" transform="translate(322.021,359.2859)">
		<path id="path418" class="st11" d="M-265.2-322.6l-19.8,19.8l-0.3-0.3l19.8-19.8C-265.4-322.8-265.3-322.7-265.2-322.6"/>
	</g>
	<g id="g420" transform="translate(322.021,359.2859)">
		<path id="path422" class="st12" d="M-265.2-322.6l-19.8,19.8l-0.3-0.3l19.8-19.8C-265.4-322.8-265.3-322.7-265.2-322.6z"/>
	</g>
	<g id="g424" transform="translate(336.4434,342.0989)">
		<path id="path426" class="st11" d="M-276.1-301.2l-23.4,15.6l-0.3-0.4l23.4-15.6C-276.2-301.5-276.2-301.3-276.1-301.2"/>
	</g>
	<g id="g428" transform="translate(336.4434,342.0989)">
		<path id="path430" class="st12" d="M-276.1-301.2l-23.4,15.6l-0.3-0.4l23.4-15.6C-276.2-301.5-276.2-301.3-276.1-301.2z"/>
	</g>
	<g id="g432" transform="translate(346.1714,322.01)">
		<path id="path434" class="st11" d="M-283.4-276.2l-25.8,10.8l-0.2-0.4l25.9-10.8C-283.5-276.5-283.5-276.3-283.4-276.2"/>
	</g>
	<g id="g436" transform="translate(346.1714,322.01)">
		<path id="path438" class="st12" d="M-283.4-276.2l-25.8,10.8l-0.2-0.4l25.9-10.8C-283.5-276.5-283.5-276.3-283.4-276.2z"/>
	</g>
	<g id="g440" transform="translate(351.7031,300.614)">
		<path id="path442" class="st11" d="M-287.6-249.6l-27.2,5.5l-0.1-0.4l27.3-5.5C-287.7-249.9-287.6-249.7-287.6-249.6"/>
	</g>
	<g id="g444" transform="translate(351.7031,300.614)">
		<path id="path446" class="st12" d="M-287.6-249.6l-27.2,5.5l-0.1-0.4l27.3-5.5C-287.7-249.9-287.6-249.7-287.6-249.6z"/>
	</g>
	<g id="g448" transform="translate(353.5332,278.7522)">
		<path id="path450" class="st11" d="M-289-222.4l-27.7,0.2v-0.5l27.7-0.2C-289-222.7-289-222.5-289-222.4"/>
	</g>
	<g id="g452" transform="translate(353.5332,278.7522)">
		<path id="path454" class="st12" d="M-289-222.4l-27.7,0.2v-0.5l27.7-0.2C-289-222.7-289-222.5-289-222.4z"/>
	</g>
	<g id="g456" transform="translate(240.1177,307.4182)">
		<path id="path458" class="st11" d="M-203.3-258.1c3.9,0,7.1,3.1,7.1,7h-14.2C-210.4-254.9-207.2-258.1-203.3-258.1"/>
	</g>
	<g id="g460" transform="translate(240.1177,304.949)">
		<path id="path462" class="st13" d="M-203.3-255c3.6,0,6.5,2.8,6.5,6.2h-13C-209.8-252.2-206.9-255-203.3-255"/>
	</g>
</g>
<g id="g230">
	<g id="g236" transform="translate(184.9409,348.2864)">
		<path id="path238" class="st14" d="M-161.5-308.9l-0.6,1.9h-2l1.6,1.2l-0.6,1.9l1.6-1.2l1.6,1.2l-0.6-1.9l1.6-1.2h-2L-161.5-308.9
			z"/>
	</g>
	<g id="g240" transform="translate(184.9409,348.2864)">
		<path id="path242" class="st15" d="M-161.5-308.9l-0.6,1.9h-2l1.6,1.2l-0.6,1.9l1.6-1.2l1.6,1.2l-0.6-1.9l1.6-1.2h-2L-161.5-308.9
			z"/>
	</g>
	<g id="g244" transform="translate(178.1753,294.3279)">
		<path id="path246" class="st14" d="M-156.4-241.8l-0.6,1.9h-2l1.6,1.2l-0.6,1.9l1.6-1.2l1.6,1.2l-0.6-1.9l1.6-1.2h-2L-156.4-241.8
			z"/>
	</g>
	<g id="g248" transform="translate(178.1753,294.3279)">
		<path id="path250" class="st15" d="M-156.4-241.8l-0.6,1.9h-2l1.6,1.2l-0.6,1.9l1.6-1.2l1.6,1.2l-0.6-1.9l1.6-1.2h-2L-156.4-241.8
			z"/>
	</g>
	<g id="g252" transform="translate(169.4038,245.9846)">
		<path id="path254" class="st14" d="M-149.8-181.6l-0.6,1.9h-2l1.6,1.2l-0.6,1.9l1.6-1.2l1.6,1.2l-0.6-1.9l1.6-1.2h-2L-149.8-181.6
			z"/>
	</g>
	<g id="g256" transform="translate(169.4038,245.9846)">
		<path id="path258" class="st15" d="M-149.8-181.6l-0.6,1.9h-2l1.6,1.2l-0.6,1.9l1.6-1.2l1.6,1.2l-0.6-1.9l1.6-1.2h-2L-149.8-181.6
			z"/>
	</g>
	<g id="g260" transform="translate(274.1387,161.8606)">
		<path id="path262" class="st14" d="M-229-77l-0.6,1.9h-2l1.6,1.2l-0.6,1.9l1.6-1.2l1.6,1.2l-0.6-1.9l1.6-1.2h-2L-229-77z"/>
	</g>
	<g id="g264" transform="translate(274.1387,161.8606)">
		<path id="path266" class="st15" d="M-229-77l-0.6,1.9h-2l1.6,1.2l-0.6,1.9l1.6-1.2l1.6,1.2l-0.6-1.9l1.6-1.2h-2L-229-77z"/>
	</g>
	<g id="g268" transform="translate(322.667,181.4768)">
		<path id="path270" class="st14" d="M-265.7-101.4l-0.6,1.9h-2l1.6,1.2l-0.6,1.9l1.6-1.2l1.6,1.2l-0.6-1.9l1.6-1.2h-2L-265.7-101.4
			z"/>
	</g>
	<g id="g272" transform="translate(322.667,181.4768)">
		<path id="path274" class="st15" d="M-265.7-101.4l-0.6,1.9h-2l1.6,1.2l-0.6,1.9l1.6-1.2l1.6,1.2l-0.6-1.9l1.6-1.2h-2L-265.7-101.4
			z"/>
	</g>
	<g id="g276" transform="translate(225.1543,181.4768)">
		<path id="path278" class="st14" d="M-191.9-101.4l0.6,1.9h2l-1.6,1.2l0.6,1.9l-1.6-1.2l-1.6,1.2l0.6-1.9l-1.6-1.2h2L-191.9-101.4z
			"/>
	</g>
	<g id="g280" transform="translate(225.1543,181.4768)">
		<path id="path282" class="st15" d="M-191.9-101.4l0.6,1.9h2l-1.6,1.2l0.6,1.9l-1.6-1.2l-1.6,1.2l0.6-1.9l-1.6-1.2h2L-191.9-101.4z
			"/>
	</g>
	<g id="g284" transform="translate(186.5786,207.2464)">
		<path id="path286" class="st14" d="M-162.8-133.4l0.6,1.9h2l-1.6,1.2l0.6,1.9l-1.6-1.2l-1.6,1.2l0.6-1.9l-1.6-1.2h2L-162.8-133.4z
			"/>
	</g>
	<g id="g288" transform="translate(186.5786,207.2464)">
		<path id="path290" class="st15" d="M-162.8-133.4l0.6,1.9h2l-1.6,1.2l0.6,1.9l-1.6-1.2l-1.6,1.2l0.6-1.9l-1.6-1.2h2L-162.8-133.4z
			"/>
	</g>
</g>
<g id="g614">
	<g id="g616">
		<g id="g622">
			<g id="g624">
				
					<linearGradient id="path634_1_" gradientUnits="userSpaceOnUse" x1="-1021.1606" y1="8.0456" x2="-1020.9777" y2="8.0456" gradientTransform="matrix(31.217 0 0 31.217 31911.5859 -199.4608)">
					<stop  offset="0" style="stop-color:#E2E0E0"/>
					<stop  offset="0.2636" style="stop-color:#E2E0E0"/>
					<stop  offset="1" style="stop-color:#FCFDFF"/>
				</linearGradient>
				<path id="path634" class="st16" d="M34,47.5V56h5.7v-8.6L34,47.5L34,47.5z"/>
			</g>
		</g>
	</g>
</g>
<g id="g636">
	<g id="g638">
		<g id="g644">
			<g id="g646">
				
					<linearGradient id="path656_1_" gradientUnits="userSpaceOnUse" x1="-997.532" y1="17.9633" x2="-997.349" y2="17.9633" gradientTransform="matrix(15.8642 0 0 15.8642 15860.4951 -240.7235)">
					<stop  offset="0" style="stop-color:#E2E0E0"/>
					<stop  offset="0.2636" style="stop-color:#E2E0E0"/>
					<stop  offset="1" style="stop-color:#FCFDFF"/>
				</linearGradient>
				<path id="path656" class="st17" d="M36.8,41.1c-0.3,0-0.5,0.4-0.8,0.8l0,0c-0.3,0.4-0.5,0.6-0.5,0.6l0,0V46l0.1,0.2l-0.1,1.2
					h2.4l-0.1-1.3l0.5-0.1l-0.1-1.2l-0.1-2c0,0-0.6-0.6-0.8-0.9l0,0C37.2,41.5,37.3,41.1,36.8,41.1L36.8,41.1L36.8,41.1z"/>
			</g>
		</g>
	</g>
</g>
<g id="g20" transform="translate(573.6523,417.3992)">
	<path id="path22" class="st0" d="M-455.4-394.9c-12.3,0-21.6,8.6-21.6,20.1s9.4,20.1,21.5,20.1c7.2,0,12.9-3.1,16.6-7.5v-0.8
		l-7.2-6.1h-0.8c-2,2.2-5,3.8-8.4,3.8c-5.3,0-9.5-4-9.5-9.5s4.2-9.5,9.5-9.5c3.4,0,6.5,1.6,8.4,3.8h0.8l7.2-6.1v-0.8
		C-442.8-391.9-448.7-394.9-455.4-394.9"/>
</g>
<g id="g24" transform="translate(665.7671,255.2561)">
	<path id="path26" class="st0" d="M-525.1-193.2h29.8v-9.7h-17.9v-5.5h13.5v-9.1h-13.5v-5.5h17.9v-9.7h-29.8L-525.1-193.2
		L-525.1-193.2z"/>
</g>
<g id="g28" transform="translate(1242.4956,427.1482)">
	<path id="path30" class="st0" d="M-961.1-407l15.6-5.9v-0.8l-4.1-6.8h-0.8l-13.8,8.5v0.8l2.3,4.2L-961.1-407L-961.1-407z"/>
</g>
<g id="g32" transform="translate(1243.4702,312.1316)">
	<path id="path34" class="st0" d="M-961.9-263.9l4.4-11.7l4.1,11.7H-961.9z M-940.5-263.7l-4.7-10.5l-6.9-15.3H-963l-16.6,39.6h12.4
		l2.2-6h14.8c1.2,2.1,2.5,3.8,3.8,4.9c1.6,1.2,3.6,1.8,6.1,1.8c2.2,0,4.1-0.5,5.7-1.3l-5.3-11.8C-940-262.8-940.2-263.2-940.5-263.7
		"/>
</g>
<g id="g36" transform="translate(878.146,312.1316)">
	<path id="path38" class="st0" d="M-685.6-263.9l4.4-11.7l4.1,11.7H-685.6z M-664.2-263.7l-4.7-10.5l-6.9-15.3h-10.9l-16.6,39.6
		h12.4l2.2-6h14.8c1.2,2.1,2.5,3.8,3.8,4.9c1.6,1.2,3.6,1.8,6.1,1.8c2.2,0,4.1-0.5,5.7-1.3l-5.3-11.8
		C-663.8-262.8-664-263.2-664.2-263.7"/>
</g>
<g id="g40" transform="translate(1083.0049,344.5598)">
	<path id="path42" class="st0" d="M-840.5-304.3h-6.1v-8h6.1c2.2,0,4.1,1.5,4.1,4.1C-836.4-305.5-838.3-304.3-840.5-304.3
		 M-831.5-298c4.3-1.9,7.2-5.7,7.2-10.8c0-8.1-5.5-13.2-15.7-13.2h-18.4v39.6h11.8v-13.9h1c2.6,0,5.1,5.4,6.5,8
		c2.7,4.7,5.2,6.6,10.6,6.6c2.4,0,4.8-0.8,6-1.8v-0.1l-8.8-14.1C-831.3-297.8-831.4-297.9-831.5-298"/>
</g>
<g id="g44" transform="translate(537.1309,197.718)">
	<path id="path46" class="st0" d="M-427.8-121.6c0,1.7-0.7,3.2-1.8,4.3c-1.1,1.1-2.7,1.8-4.5,1.8c-3.6,0-6.4-2.7-6.4-6.3
		c0-3.6,2.8-6.3,6.4-6.3c2.1,0,3.9,0.9,5.1,2.3v0.2l-1.8,1.5h-0.2c-0.7-0.9-1.7-1.4-3-1.4c-1.9,0-3.5,1.5-3.5,3.7
		c0,2.1,1.5,3.6,3.6,3.6c0.9,0,1.7-0.3,2.3-0.8c0.5-0.4,0.8-1,0.9-1.6h-3.2v-2.1h6l0.2,0.2C-427.8-122.2-427.8-121.9-427.8-121.6"/>
</g>
<g id="g48" transform="translate(587.5103,198.3274)">
	<path id="path50" class="st0" d="M-465.9-122.3c0-2.1-1.6-3.7-3.7-3.7s-3.7,1.5-3.7,3.7c0,2.1,1.6,3.7,3.7,3.7
		C-467.5-118.7-465.9-120.2-465.9-122.3 M-476.2-122.3c0-3.6,2.9-6.3,6.7-6.3c3.8,0,6.6,2.7,6.6,6.3c0,3.6-2.9,6.3-6.6,6.3
		C-473.4-116.1-476.2-118.7-476.2-122.3"/>
</g>
<g id="g52" transform="translate(655.6465,222.2727)">
	<path id="path54" class="st0" d="M-517.4-152.1l-5.5,11.9h-1.7l-5.5-11.9l0.1-0.2h3l3.2,7.8l3.3-7.8h2.9L-517.4-152.1z"/>
</g>
<g id="g56" transform="translate(676.646,213.3997)">
	<path id="path58" class="st0" d="M-533.3-141.1v2.5h4.6v2.3h-4.6v2.6h6v2.4h-8.9v-12.1h8.8v2.4L-533.3-141.1L-533.3-141.1z"/>
</g>
<g id="g60" transform="translate(725.0435,200.3157)">
	<path id="path62" class="st0" d="M-569.9-124.8h2.3c1,0,1.7-0.6,1.7-1.6s-0.7-1.6-1.7-1.6h-2.3V-124.8z M-562.7-118.5l-0.1,0.2
		h-2.9l-2.4-4.6h-1.7v4.6h-2.9v-12.1h5.2c3.1,0,4.7,1.5,4.7,3.9c0,1.6-0.9,2.8-2.4,3.3L-562.7-118.5z"/>
</g>
<g id="g64" transform="translate(810.395,223.1936)">
	<path id="path66" class="st0" d="M-634.4-153.3v12.2h-1.8l-6.2-7.2v7.2h-2.9v-12.1h1.8l6.1,7.2v-7.2L-634.4-153.3L-634.4-153.3z"/>
</g>
<g id="g68" transform="translate(864.2178,198.3274)">
	<path id="path70" class="st0" d="M-675.1-122.3c0-2.1-1.6-3.7-3.7-3.7c-2.1,0-3.7,1.5-3.7,3.7c0,2.1,1.6,3.7,3.7,3.7
		C-676.7-118.7-675.1-120.2-675.1-122.3 M-685.5-122.3c0-3.6,2.9-6.3,6.7-6.3s6.6,2.7,6.6,6.3c0,3.6-2.9,6.3-6.6,6.3
		C-682.6-116.1-685.5-118.7-685.5-122.3"/>
</g>
<g id="g72" transform="translate(943.2046,198.3274)">
	<path id="path74" class="st0" d="M-734.8-122.3c0-2.3-1.4-3.7-3.5-3.7h-2.3v7.4h2.3C-736.3-118.7-734.8-120.1-734.8-122.3
		 M-731.9-122.4c0,3.7-2.5,6.1-6.4,6.1h-5.3v-12.1h5.3C-734.3-128.4-731.9-126-731.9-122.4"/>
</g>
<g id="g76" transform="translate(1006.2852,198.3274)">
	<path id="path78" class="st0" d="M-782.5-122.3c0-2.1-1.6-3.7-3.7-3.7c-2.1,0-3.7,1.5-3.7,3.7c0,2.1,1.6,3.7,3.7,3.7
		C-784.1-118.7-782.5-120.2-782.5-122.3 M-792.9-122.3c0-3.6,2.9-6.3,6.7-6.3s6.6,2.7,6.6,6.3c0,3.6-2.9,6.3-6.6,6.3
		C-790-116.1-792.9-118.7-792.9-122.3"/>
</g>
<g id="g80" transform="translate(1061.4702,213.3997)">
	<path id="path82" class="st0" d="M-824.2-141.1v2.5h4.6v2.3h-4.6v2.6h6v2.4h-8.9v-12.1h8.8v2.4L-824.2-141.1L-824.2-141.1z"/>
</g>
<g id="g84" transform="translate(1094.187,181.4934)">
	<path id="path86" class="st0" d="M-849-101.4v-0.2l1.4-1.7h0.2c0.8,0.9,2.2,1.6,3.4,1.6s1.9-0.5,1.9-1.2c0-1-1.2-1.2-2.7-1.6
		c-1.7-0.5-3.7-1.5-3.7-3.7c0-2.1,1.9-3.6,4.6-3.6c2,0,3.7,0.8,4.6,1.8v0.2l-1.4,1.6h-0.2c-0.6-0.6-1.6-1.3-2.9-1.3
		c-1,0-1.6,0.4-1.6,1.1c0,0.8,0.9,1.1,1.9,1.5c2.1,0.7,4.5,1.3,4.5,4c0,2.4-2.1,3.7-4.8,3.7C-846-99.2-847.9-100.1-849-101.4"/>
</g>
<g id="g88" transform="translate(1168.5942,173.4602)">
	<path id="path90" class="st0" d="M-905.2-91.4h-2.9v-9.7h-3.8v-2.4h10.5v2.4h-3.8V-91.4z"/>
</g>
<g id="g92" transform="translate(1216.1563,190.4505)">
	<path id="path94" class="st0" d="M-941.2-112.6l-1.7-4.1l-1.8,4.1H-941.2z M-936.4-108.6l-0.1,0.2h-2.9l-0.9-2.1h-5.1l-0.9,2.1
		h-2.8l-0.1-0.2l5.6-11.9h1.8L-936.4-108.6z"/>
</g>
<g id="g96" transform="translate(1280.4678,198.3274)">
	<path id="path98" class="st0" d="M-989.8-122.3c0-2.3-1.4-3.7-3.5-3.7h-2.3v7.4h2.3C-991.2-118.7-989.8-120.1-989.8-122.3
		 M-986.9-122.4c0,3.7-2.5,6.1-6.4,6.1h-5.3v-12.1h5.3C-989.3-128.4-986.9-126-986.9-122.4"/>
</g>
<g id="g100" transform="translate(1343.5469,198.3274)">
	<path id="path102" class="st0" d="M-1037.5-122.3c0-2.1-1.6-3.7-3.7-3.7s-3.7,1.5-3.7,3.7c0,2.1,1.6,3.7,3.7,3.7
		C-1039.1-118.7-1037.5-120.2-1037.5-122.3 M-1047.9-122.3c0-3.6,2.9-6.3,6.7-6.3c3.8,0,6.6,2.7,6.6,6.3c0,3.6-2.9,6.3-6.6,6.3
		C-1045-116.1-1047.9-118.7-1047.9-122.3"/>
</g>
<g id="g710" transform="translate(498.1641,89.7903)">
	<path id="path712" class="st0" d="M-398.4,12.7c1.5,0,2.6-0.8,2.6-2.1c0-1.6-1.4-1.9-2.6-2.3c-0.7-0.2-1.3-0.5-1.3-1.1
		c0-0.5,0.5-0.9,1.3-0.9s1.4,0.4,1.7,0.8h0.1l0.6-0.7v0c-0.5-0.6-1.4-1.1-2.5-1.1c-1.5,0-2.5,0.8-2.5,2s1.1,1.7,1.9,2
		c1,0.4,2,0.5,2,1.3c0,0.6-0.5,1-1.4,1c-0.7,0-1.6-0.4-2.1-1.1h-0.1l-0.7,0.7v0.1C-400.6,12.2-399.5,12.7-398.4,12.7 M-389,6.5v-1
		h-4.9v7.1h4.9v-1h-3.7V9.5h2.9v-1h-2.9v-2H-389z M-384.1,12.7c1.3,0,2.3-0.6,3-1.4v-0.1l-0.8-0.6h-0.1c-0.5,0.6-1.2,1-2.1,1
		c-1.4,0-2.5-1.1-2.5-2.6s1.1-2.6,2.5-2.6c0.9,0,1.6,0.4,2.1,1h0.1l0.8-0.6V6.7c-0.7-0.9-1.7-1.4-2.9-1.4c-2.1,0-3.8,1.6-3.8,3.7
		S-386.2,12.7-384.1,12.7 M-375.5,9.5c1-0.3,1.5-1,1.5-2c0-1.3-0.9-2.2-2.6-2.2h-2.9v7.1h1.2V9.7h1.5l1.5,2.9h1.2l0.1-0.1
		L-375.5,9.5z M-378.3,6.5h1.8c0.8,0,1.3,0.5,1.3,1.2s-0.5,1.2-1.3,1.2h-1.8V6.5z M-367.2,6.5v-1h-4.9v7.1h4.9v-1h-3.7V9.5h2.9v-1
		h-2.9v-2H-367.2z M-362.6,6.5h2.3v-1h-5.8v1h2.3v6.1h1.2V6.5z M-356.5,5.4h-0.7l-3.3,7l0.1,0.1h1.2l0.6-1.4h3.5l0.6,1.4h1.2
		l0.1-0.1L-356.5,5.4z M-358.2,10.2l1.3-3l1.3,3H-358.2z M-347.8,9.5c1-0.3,1.5-1,1.5-2c0-1.3-0.9-2.2-2.6-2.2h-2.9v7.1h1.2V9.7h1.5
		l1.5,2.9h1.2l0.1-0.1L-347.8,9.5z M-350.5,6.5h1.8c0.8,0,1.3,0.5,1.3,1.2s-0.5,1.2-1.3,1.2h-1.8V6.5z M-344.4,12.5h1.2V5.4h-1.2
		V12.5z M-337.7,5.4h-0.7l-3.3,7l0.1,0.1h1.2l0.6-1.4h3.5l0.6,1.4h1.2l0.1-0.1L-337.7,5.4z M-339.4,10.2l1.3-3l1.3,3H-339.4z
		 M-327.4,5.4h-2.9v7.1h2.9c2.2,0,3.7-1.4,3.7-3.6C-323.7,6.9-325.2,5.4-327.4,5.4 M-327.5,11.5h-1.7v-5h1.7c1.5,0,2.5,1,2.5,2.5
		S-326,11.5-327.5,11.5 M-319,5.4h-0.7l-3.3,7l0.1,0.1h1.2l0.6-1.4h3.5l0.6,1.4h1.2l0.1-0.1L-319,5.4z M-320.7,10.2l1.3-3l1.3,3
		H-320.7z"/>
</g>
<g id="g714" transform="translate(863.4302,89.7903)">
	<path id="path716" class="st0" d="M-674.5,12.7c1.5,0,2.8-0.8,2.8-2.2c0-1.6-1.4-2-2.6-2.3c-0.6-0.2-1.1-0.4-1.1-0.9
		c0-0.4,0.4-0.6,1-0.6c0.7,0,1.3,0.4,1.7,0.8h0.1l0.8-1V6.4c-0.5-0.6-1.5-1.1-2.7-1.1c-1.6,0-2.7,0.9-2.7,2.1c0,1.3,1.2,1.9,2.2,2.2
		c0.9,0.3,1.6,0.3,1.6,1c0,0.4-0.4,0.7-1.1,0.7s-1.5-0.4-2-0.9h-0.1l-0.8,1v0.1C-676.9,12.2-675.8,12.7-674.5,12.7 M-666.7,5.4h-1
		l-3.3,7l0.1,0.1h1.7l0.5-1.2h3l0.5,1.2h1.7l0.1-0.1L-666.7,5.4z M-668.3,10.1l1-2.4l1,2.4H-668.3z M-658.3,2.4l-2.4,1.5V4l0.4,0.7
		h0.1l2.6-1.1V3.5L-658.3,2.4L-658.3,2.4z M-662.6,5.4v3.9c0,2,1.3,3.3,3.3,3.3s3.3-1.3,3.3-3.3V5.4h-1.7v4c0,1-0.6,1.7-1.6,1.7
		s-1.6-0.7-1.6-1.7v-4C-660.9,5.4-662.6,5.4-662.6,5.4z M-651,5.4h-3.1v7.1h3.1c2.3,0,3.7-1.4,3.7-3.6C-647.2,6.9-648.7,5.4-651,5.4
		 M-651,11.1h-1.3V6.8h1.3c1.2,0,2.1,0.8,2.1,2.2C-649,10.3-649.8,11.1-651,11.1 M-640.4,6.8V5.4h-5.2v7.1h5.2v-1.4h-3.5V9.6h2.7
		V8.3h-2.7V6.8H-640.4z"/>
</g>
<g id="g588">
	<path id="path594" class="st18" d="M35.5,44.8h2.6v-1.3h-2.6V44.8z"/>
	<path id="path596" class="st19" d="M35.5,43.4h2.6v1.3h-2.6V43.4z"/>
	<g id="g598" transform="translate(278.106,343.7869)">
		<path id="path600" class="st14" d="M-232-303.3c1.7,0,3.4,0,4.9,0.6c1.2,0.4,1.7,0.4,2.8,1.5l-1.7,1.1c-1.7-1.9-3.9-2.2-6.1-2.9
			C-233-303.3-232.9-303.3-232-303.3"/>
	</g>
	<g id="g602" transform="translate(306.7085,335.3621)">
		<path id="path604" class="st14" d="M-253.6-292.8c1.4,0.1,3-0.9,3.6-1.1c0.2,0,0.6,0.4,0.4,0.5c-0.1,0.1-0.9,0.4-1.1,0.5
			c-0.1,0.1,1.1-0.6,1.2-0.5c0.3,0.1,0.5,0.6,0.4,0.7c0,0-1.1,0.3-1.4,0.4c-0.3,0.1,0.9-0.4,1.4-0.4c0.2,0,0.4,0.6,0.1,0.7
			c-0.8,0.5-1.7,0.5-2.5,0.9c0.3,1.2,1.1,2.6,1,3.8c-0.1,1.9-1.1,3.7-1.4,5.5c-0.1,0.7,0,0.9-0.2,0.1c-0.4-2.3-0.6-6.5-1.7-8.1
			c-0.4-0.3-0.8-0.5-1.3-0.7c-0.3-0.1-0.7-0.1-1.3-0.2c-0.3,0.1-1,0.2-1.3,0.3c0.1-0.6,0.5-2.1,1.6-2L-253.6-292.8z"/>
	</g>
	<g id="g606" transform="translate(308.6406,246.4895)">
		<path id="path608" class="st20" d="M-255.1-182.3v0.7l0.9,0.7v-0.7L-255.1-182.3z M-255.1-181v0.7l1,0.7v-0.7L-255.1-181z
			 M-255.2-179.8v0.7l1.1,0.8v-0.7L-255.2-179.8z M-255.2-178.6v0.6l1.1,0.9v-0.7L-255.2-178.6z M-255.2-177.4v0.7l1.2,0.9v-0.7
			L-255.2-177.4z M-255.3-176.1v0.6l1.3,1v-0.7L-255.3-176.1z M-255.3-174.9v0.6l1.4,1v-0.7L-255.3-174.9z M-255.4-173.7v0.6
			l1.4,1.1v-0.6L-255.4-173.7z M-255.4-172.5v0.6l0.1,0.1h0.8L-255.4-172.5z M-255-183.4v0.6l0.8,0.6v-0.7L-255-183.4L-255-183.4z"
			/>
	</g>
	<g id="g610" transform="translate(307.3394,216.0608)">
		<path id="path612" class="st21" d="M-254.1-144.4v0.6l1.4,1v-0.6L-254.1-144.4z M-254.1-143.2v0.6l1.4,1.1v-0.6L-254.1-143.2z
			 M-254.2-142v0.6l0.1,0.1h0.8L-254.2-142z"/>
	</g>
</g>
<g id="g658">
	<g>
		<g id="g660">
			<path id="path666" class="st18" d="M35.6,44.6h2.3v-1.1h-2.3V44.6z"/>
			<g id="g668" transform="translate(237.1475,450.0452)">
				<path id="path670" class="st22" d="M-201-435.5c1,0.1,1.8,0.7,1.7,1.4c-0.1,0.8-0.5,4.4-0.5,4.4l-3.9,0.3l0.7-5
					C-202.9-434.3-202-435.5-201-435.5"/>
			</g>
			<g id="g672" transform="translate(233.127,443.4763)">
				<path id="path674" class="st23" d="M-198-427.3c-0.1,1.3-0.3,2.2-0.4,3.5c0.7-0.1,1.2-0.1,1.7-0.1c0.2-1.3,0.3-2.3,0.5-3.6
					C-196.6-428.2-197.5-428.1-198-427.3"/>
			</g>
			<g id="g684" transform="translate(256.9902,439.3074)">
				<path id="path686" class="st23" d="M-216-422.1l0.2-1.9c2.8-0.1,5.7-0.1,8.5,0l0.2,1.9h-1.9c0.1,0.2,0.2,0.3,0.3,0.5l4.4,0.2
					c0.1,0.6,0.2,1.2,0.2,1.8l-4.1-0.2v0.2c-0.3-1.9-1-3.8-3.3-3.8c-1.2,0-1.9,0.5-2.5,1.3H-216z M-216.5-422.1
					c-0.8,0-1.6,0.1-2.5,0.1c0-0.4,0.1-0.7,0.1-1.1v-0.3l-0.1-0.3v-0.1c0.9-0.1,1.7-0.1,2.6-0.1L-216.5-422.1z M-219.3-424.3
					c-0.2-0.3-0.6-0.5-0.9-0.6l0.2-1c2.7-0.2,5.5-0.3,8.2-0.3v1.7C-214.3-424.6-216.8-424.5-219.3-424.3 M-219.5-423.2
					c-0.2,1.2-0.3,2.4-0.5,3.6l-0.1,0.5h-0.5c-0.6,0.1-1.1,0.1-1.7,0.1l-0.8,0.1l0.1-0.7c0.1-1.2,0.3-2.4,0.4-3.5v-0.2l0.1-0.1
					c0.4-0.6,1.1-1.1,1.9-0.9c0.4,0.1,0.8,0.4,0.9,0.9l0.1,0.2H-219.5z M-223.1-423.2c0,0.5-0.1,1-0.2,1.6c-0.7,0.1-1.5,0.1-2.2,0.2
					l0.5-1.9c0.7-0.1,1.3-0.1,2-0.2L-223.1-423.2z M-223.5-419.7v0.3c-2.2,0.2-4.4,0.4-6.6,0.7l0.8-1.8l0,0c2-0.3,4-0.5,6-0.7
					C-223.4-420.7-223.5-420.2-223.5-419.7 M-228.3-422.9L-228.3-422.9l2.8-0.3l-0.5,1.9l-3.1,0.4L-228.3-422.9z M-227.4-425.1
					c2.3-0.3,4.6-0.6,6.8-0.8l-0.1,0.9c-0.8,0-1.6,0.4-2.1,1l-5.4,0.6L-227.4-425.1z M-229-425.5c-0.6-0.4-0.9-0.7-1.5-1.1
					c13.1-2.1,24.4-2,37.6,0l-1.2,1.1l-6.4-0.8C-209.9-427.3-219-427.1-229-425.5 M-230.5-427.2c-0.9-1.7-0.7-1.1-0.7-3.2
					c1.5-0.3,2.9-0.5,4.4-0.8v1.8c1.5-0.2,2.9-0.4,4.4-0.5v-1.9c1.5-0.1,2.9-0.3,4.4-0.4v1.9c1.5-0.1,2.9-0.1,4.4-0.2v-1.9
					c1.5,0,2.9,0,4.4,0v1.9c1.5,0,2.9,0.1,4.4,0.1v-1.9c1.5,0.1,2.9,0.2,4.4,0.3v1.8c1.5,0.2,2.9,0.3,4.4,0.5v-1.8
					c1.5,0.2,2.9,0.5,4.4,0.8c0,2.1,0.2,1.4-0.7,3.2c-6.5-1-12.9-1.6-19.5-1.6C-218.3-428.7-224.4-428.1-230.5-427.2L-230.5-427.2z
					 M-226.3-431.1l2.1,0.9c-0.7,0.1-1.4,0.2-2.1,0.3V-431.1z M-217.5-431.9l1.2,1.1c-0.4,0-0.8,0-1.2,0V-431.9z M-205.7-431.9v1.1
					c-0.4,0-0.8,0-1.1,0L-205.7-431.9z M-196.9-431.2v1.2c-0.7-0.1-1.3-0.2-2-0.3L-196.9-431.2z M-195.2-423.5L-195.2-423.5
					l-5.6-0.6c-0.4-0.5-1-0.9-1.7-1l-0.2-0.9c2.2,0.2,4.5,0.4,6.7,0.8L-195.2-423.5z M-194.1-421.1L-194.1-421.1l-3-0.4l-0.5-1.8
					l2.7,0.4L-194.1-421.1z M-193.1-418.8L-193.1-418.8c-2.3-0.3-4.6-0.5-6.8-0.7v-0.2c0-0.5-0.1-1-0.2-1.6c2.1,0.2,4.2,0.4,6.3,0.7
					L-193.1-418.8z M-200.4-423.2v-0.3l0,0c0.8,0.1,1.5,0.1,2.3,0.2l0.5,1.8c-0.8-0.1-1.7-0.2-2.5-0.2
					C-200.3-422.3-200.4-422.7-200.4-423.2 M-201.3-419c-0.6,0-1.1-0.1-1.7-0.1h-0.5l-0.1-0.5c-0.2-1.2-0.3-2.4-0.5-3.6v-0.2
					l0.1-0.2c0.2-0.4,0.5-0.7,1-0.9c0.8-0.2,1.5,0.3,1.9,0.9l0.1,0.1v0.2c0.1,1.2,0.3,2.4,0.4,3.5l0.1,0.7L-201.3-419z
					 M-204.7-423.1c0,0.4,0.1,0.7,0.1,1.1c-0.7,0-1.4-0.1-2.2-0.1l-0.2-1.9c0.8,0,1.6,0.1,2.3,0.1l-0.1,0.1l-0.1,0.3L-204.7-423.1z
					 M-204.2-424.4c-2.4-0.1-4.7-0.2-7.1-0.2v-1.7c2.7,0,5.4,0.1,8.1,0.3l0.2,1h-0.2C-203.6-424.9-203.9-424.6-204.2-424.4
					 M-211.6-423c2.8,0,2.8,3.3,3,5.4v0.1v0.1h0.5v-0.2l0,0c0-0.5-0.1-1.2-0.2-1.8h1.3l0.2,1.8l0,0l0,0v0.1h0.5v-0.1l0,0l-0.2-1.8
					c0.8,0,1.5,0.1,2.3,0.1l0.1,0.7l1,0.1c0.6,0.1,1.1,0.1,1.7,0.1l1.5,0.1l-0.1-0.8c1,0.1,2,0.2,2.9,0.3l0.5,1.9l0.1,0.3h0.5
					l-0.1-0.5l-0.4-1.6l3.6,0.4l0.8,1.8l0.1,0.2l0,0l0.1,0.1c0,0,0.3,0,0.6,0.1v-0.1l0,0l-3.9-8.8l1.4,0.2l1.4-1.2l1-2.2
					c0.2-0.4,0.1-2,0.1-2.6c-0.8-0.2-5.2-1.1-5.6-1l-3.2,1.4v-1.8l-5.6-0.4l0,0l-1.9,1.8h-1.2v-1.9h-5.6v1.9h-1.2l-1.9-1.8l-5.6,0.5
					v1.8l-3.1-1.4c-0.4,0-4.8,0.8-5.6,1c0,0.5-0.1,2.2,0.1,2.5c1.3,2.6,0.4,1.7,2.7,3.4l1.1-0.2l-3.8,8.9c0,0.1,0,0,0,0v0.1l0.6-0.1
					l0.1-0.1l0,0l0.9-2l0,0l3.6-0.4l-0.5,1.9v0.1v0.4h0.5l0.2-0.9l0.4-1.5c0.9-0.1,1.8-0.2,2.6-0.2l-0.1,0.7l1.5-0.1
					c0.6,0,1.1-0.1,1.7-0.1l1-0.1l0.1-0.7c0.9,0,1.7-0.1,2.6-0.1l-0.1,1.4l-0.1,0.7h0.5v-0.2v-0.1l0,0l0.2-1.8h1.3l0.1-0.5l-4.4,0.2
					c0.1-0.6,0.2-1.2,0.2-1.8l4.7-0.2c-0.5,1.2-0.7,2.7-0.8,3.8v0.5h0.5v-0.2l0,0C-214.4-419.6-214.3-423-211.6-423"/>
			</g>
			<path id="path688" class="st24" d="M37.6,50.5h-1.4v1.3h1.4V50.5z"/>
			<g id="g690" transform="translate(237.3525,264.5149)">
				<path id="path692" class="st24" d="M-201.2-204.7c-1.6,2.9,0.7,5.1,4.1,7.8c-2.4,0.5-4.6,1.2-6.3,2.4
					C-205.8-199.4-204.7-202.7-201.2-204.7 M-197.9-193.7c0.3-0.2,0.3-0.5,0-0.7h-1.1v-0.1v-0.6c0-0.1-0.1-0.3-0.3-0.3h-0.6
					c-0.1,0-0.3,0.1-0.3,0.3v0.6v0.1h-2.5c1.7-1,3.7-1.6,5.6-2l1.1-0.2l-0.8-0.7c-1.5-1.2-4.2-3.3-4.4-5.3c-0.1-0.7,0.1-1.3,0.4-1.9
					l0.9-1.6l-1.6,0.9c-4.4,2.5-4.5,6.6-2.4,10.7h-0.6v-0.4h-0.9v0.4h-1c-0.3,0.2-0.3,0.4,0,0.7
					C-203.6-193.2-200.8-193.2-197.9-193.7"/>
			</g>
			<g id="g694" transform="translate(296.7363,331.1121)">
				<path id="path696" class="st24" d="M-246.1-287.5c-0.1,0-0.2,0.1-0.2,0.2s0.1,0.3,0.2,0.3c0.1,0,0.2-0.1,0.2-0.2
					C-245.8-287.4-245.9-287.5-246.1-287.5"/>
			</g>
			<g id="g698" transform="translate(275.1353,98.9905)">
				<path id="path700" class="st24" d="M-229.7,1.2c-5-9.5-34.7-15-34.7-29.2s15-24.6,0.2-34.1l9.8-12.4c17.5-2.9,34-3,49.5,0
					l9.8,12.4c-14.9,9.5,0.2,19.9,0.2,34.1C-195.1-13.8-224.8-8.2-229.7,1.2 M-201.1-53.3c0.4-3.8,3.1-6.4,6.2-8.3l0.5-0.4l-10.2-13
					h-0.2c-1.2-0.2-2.5-0.4-3.7-0.6c-3.8-0.5-6.4-0.8-8.7-1.1c-0.6-0.1-1.3-0.1-1.9-0.2h-0.1h-0.6h-0.2h-0.2
					c-1.4-0.1-2.8-0.2-4.3-0.2l0,0l0,0c-0.2,0-0.3,0-0.5,0l0,0c-0.1,0-0.3,0-0.4,0c-5.2-0.1-9.8,0.1-13.1,0.3
					c-1.1,0.1-8.5,0.8-9.8,1h-0.2c-1.7,0.2-5.1,0.8-6.3,1L-265.1-62l0.5,0.4c3.1,2,5.8,4.6,6.2,8.3c0.4,3.7-1.6,8-3,11.4
					c-1.9,4.5-3.6,9-3.6,13.9c0,1.1,0.2,2.1,0.5,3.1c1,3.3,3.6,6,6.2,8.1c3.1,2.5,6.8,4.5,10.3,6.3c3.7,1.9,7.4,3.8,11,5.9
					c2.4,1.4,5.5,3.6,6.8,6l0.5,1l0.5-1c1.3-2.5,4.4-4.6,6.8-6c3.5-2.1,7.3-4,11-5.9c3.5-1.9,7.1-3.9,10.3-6.3
					c2.7-2.1,5.2-4.8,6.3-8.1c0.3-1,0.5-2.1,0.5-3.1c0-5-1.7-9.4-3.6-13.9C-199.5-45.3-201.5-49.6-201.1-53.3"/>
			</g>
			<g id="g702" transform="translate(214.8921,471.3304)">
				<path id="path704" class="st22" d="M-184.2-461.9l2.2-0.3l-2.2-0.9V-461.9z"/>
			</g>
			<g id="g706" transform="translate(377.3203,179.8333)">
				<path id="path708" class="st24" d="M-307-99.3l-8.9-8.8c6.6-11,4.9-28.7-5-36.3c-3.2-2.5-7-3.6-11-3.6c-7.1,0-12.3,3.5-15.6,8.7
					l-10.2-10l2.6-3.3c15.4-2.5,30.9-2.8,46.3,0l7.3,9.2c-2.8,2.3-4.8,5.2-5.3,9c-0.5,4.5,1.5,9,3.2,13.1c1.7,4,3.4,8.2,3.4,12.6
					C-300.2-105.2-303.4-101.9-307-99.3 M-331-139.1c-0.9-0.3-0.9-0.2,0.1-0.3c1.7,0,3.3,0.1,4.9,0.7c0.7,0.2,1.3,0.6,2,1h-0.1h-0.1
					l-1.9,0.4C-327.7-138.3-329.3-138.6-331-139.1 M-326.6-136.7l2.3-0.5c1.4,0.1,3-1,3.7-1.2c0.1,0,0.4,0.1,0.4,0.3l-1.4,0.6
					l0.2,0.4l1.5-0.7c0.2,0.1,0.3,0.4,0.3,0.5l-1.6,0.4l0.1,0.4l1.7-0.4c0,0.2,0,0.3-0.1,0.4c-0.7,0.5-1.7,0.5-2.5,0.8
					c0.3,1.2,1.1,2.5,1,3.8c0,0.1,0,0.3,0,0.4l-0.9-1.8l-0.4,0.2l1.1,2.3c-0.1,0.4-0.2,0.9-0.3,1.3l-0.9-3l-0.4,0.1l1.1,3.6
					c-0.3,0.8-0.6,1.7-0.8,2.5c-0.1,0.7,0,0.9-0.1,0c-0.4-2.3-0.4-6.5-1.5-8c-0.4-0.3-0.9-0.5-1.5-0.7c-0.3-0.1-0.7-0.2-1.3-0.2
					c-0.3,0.1-0.9,0.2-1.2,0.3C-328-135.5-327.7-136.8-326.6-136.7 M-313.4-128.6c-0.5-0.1-1-0.2-1.5-0.3c-0.6-0.1-1.1-0.2-1.7-0.3
					c-0.2,0-0.4,0-0.7,0c-1,0.2-1.9,1.2-2.6,1.9c-1.1,1.1-2.1,2.1-3.4,2.9l-0.8,0.4l-7.9-0.1c1-2.3,4.1-5.9,5.8-5.7
					c0.8,0.1,1.9,0.5,2.7,0.7c0.1,0.9,0.2,1.9,0.3,2.8c0.1,0.3,0,1,0.6,1s0.5-0.7,0.5-1c0.2-1,0.6-2,0.9-3c2-1.3,2.1-5.3,6-5.4
					c0.1,0,0.2,0,0.3,0c0.7,1.9,1.2,3.9,1.6,5.9L-313.4-128.6z M-312.8-123.9L-312.8-123.9L-312.8-123.9L-312.8-123.9L-312.8-123.9
					L-312.8-123.9H-323c3.4-2.1,4.5-5,6.3-4.8c1.1,0.1,2.6,0.5,3.6,0.6l0,0l0,0C-312.9-126.7-312.8-125.3-312.8-123.9L-312.8-123.9z
					 M-327.5-115.3l-0.4,0.7l-0.4,0.1L-327.5-115.3z M-326.6-119.5l-0.5-0.9l0.4,0.1L-326.6-119.5z M-320.2-119.5l0.2-0.7l0.3-0.1
					L-320.2-119.5z M-319.1-115.3l0.8,0.8l-0.4-0.1L-319.1-115.3z M-322.3-108.7c0-1-0.1-2.1-0.1-3.1l0.4-0.8v1.1h0.4v-1.1l0.4,1
					l0.4-0.1l-0.4-1.1l0.8,0.8l0.3-0.3l-0.1-0.1l0.1-1.2l0.3,1.1l0.4-0.1l-0.3-1.1l0.7,0.9l0.3-0.2l-0.7-1l1,0.6l0.2-0.3l-1-0.6
					l0.3,0.1l0.1,0.2l0.2-0.1l0.4,0.1l0.1-0.4h-0.1l0.2-0.2l-1-1l1.2,0.7l0.2-0.3l-1.3-0.8l1.5,0.3l0.1-0.4l-1.2-0.3h1.2v-0.4h-1.4
					l1.3-0.4l-0.1-0.4l-1.3,0.4l0.7-0.4l0,0l0,0l0.5-0.3l-0.2-0.3l-0.4,0.2l-1-0.2l1.3-0.1v-0.4l-1.5,0.2l1.3-0.6l-0.2-0.4l-1.3,0.6
					l1.1-0.9l-0.3-0.3l-1.1,0.9l0.8-1.2l-0.3-0.2l0,0l-0.1-0.1l-0.4,0.2l0.1-0.2h-0.1l0.3-0.2l-0.2-0.3l-1.3,0.9l0.9-1.2l-0.3-0.2
					l-1,1.3l0.6-1.5l-0.4-0.1l-0.5,1.3l0.1-1.4h-0.4l-0.1,1.5l-0.3-1.5l-0.4,0.1l0.3,1.5l-0.5-0.9l0.2-0.3l-0.4-0.2v0.1l0,0
					l-0.4,0.2l0.1,0.3l-0.4,0.9l0.3-1.5l-0.4-0.1l-0.3,1.5l-0.1-1.5h-0.4l0.1,1.4l-0.5-1.3l-0.4,0.1l0.6,1.5l-1-1.3l-0.3,0.2
					l0.9,1.2l-1.3-0.9l-0.2,0.3l0.3,0.2h-0.2v0.2l-0.4-0.2l-0.1,0.2l-0.3,0.2l0.8,1.2l-1.1-0.9l-0.3,0.3l1.1,0.9l-1.3-0.6l-0.2,0.4
					l1.3,0.6l-1.5-0.2v0.4l1.3,0.1l-0.9,0.1l-0.3-0.2l-0.2,0.3l0.4,0.2v0.1h0.1l0.7,0.5l-1.3-0.4l-0.1,0.4l1.3,0.4h-1.4v0.4h1.2
					l-1.2,0.3l0.1,0.4l1.5-0.3l-1.3,0.8l0.2,0.3l1.2-0.7l-1,1l0.2,0.2h-0.1l0.1,0.4l0.4-0.1l0.2,0.1l0.1-0.2l0.3-0.1l-1,0.6l0.2,0.3
					l1-0.6l-0.7,1l0.3,0.2l0.7-0.9l-0.3,1.1l0.4,0.1l0.3-1.1l0.1,1.2l-0.1,0.1l0.3,0.3l0.8-0.8l-0.4,1.1l0.4,0.1l0.4-1v1.1h0.4v-1.1
					l0.3,0.7l-0.1,2.6c-2.5-0.8-4.8-1.8-6.4-3.5c-3.7-3.9-3.1-7.5-1.6-10.2l0,0l0,0l0,0l0,0l0,0l0,0l0,0l0,0l0,0l0,0l0,0l0,0l0,0
					l0,0l0,0l0.1-0.1l0,0l0,0l0,0l0,0l0,0l0.1-0.1l0,0l0,0l0.1-0.1l0,0l0,0l0,0h0.9l18.4,0.2l0,0l0,0l0,0c0,6-1.7,11.9-4.9,16.3
					C-319.1-107.6-320.7-108.1-322.3-108.7 M-324.5-113.8c0.1-0.4,0.2-0.8,0.4-1.2l-0.1,2.1l-0.3-0.7v-0.1V-113.8z M-326.1-114.7
					c0.4-0.5,0.9-0.9,1.4-1.3l-0.7,0.7l0.3,0.3l0.9-0.9c-0.4,0.7-0.6,1.3-0.8,2.1l0,0v0.1l-0.1,0.1l-0.9,0.9l-0.2-1.8v-0.1
					L-326.1-114.7z M-326.4-116.3L-326.4-116.3l0.1-0.1c0.4-0.1,0.9-0.2,1.4-0.2l-1,0.3l0.1,0.4l0.8-0.3c-0.5,0.3-1,0.8-1.4,1.3l0,0
					l0,0l-0.9,0.2L-326.4-116.3z M-326.2-118h0.1h0.1l1.1,0.5l-1.1-0.2l-0.1,0.4l1.1,0.2c-0.5,0-1,0.1-1.5,0.3h-0.1h-0.1l-1.4-0.9
					L-326.2-118z M-326.4-120.5v-0.2l0.5,0.4L-326.4-120.5z M-324-117.9l-1.1-1.1l-0.3,0.3l1.5,1.5l0,0c-0.6-0.5-1.3-0.8-1.9-1.1
					l-0.1-0.1l-0.4-1.5l1.5,0.6h0.1l0.1,0.1C-324.4-118.8-324.1-118.4-324-117.9 M-322.5-119.4c-0.3,0.4-0.5,0.8-0.6,1.2v-1.5h-0.4
					v1.8c-0.2-0.5-0.4-1.1-0.8-1.6v-0.1l0.9-1.7L-322.5-119.4L-322.5-119.4L-322.5-119.4z M-322.7-107.3v0.6l-1.4-1v-0.6
					L-322.7-107.3z M-322.7-108.5v0.6l-1.3-1v-0.6L-322.7-108.5z M-322.7-109.8v0.6l-1.2-0.9v-0.6L-322.7-109.8z M-322.8-111.1v0.6
					l-1.1-0.8v-0.6L-322.8-111.1z M-322.8-112.4v0.6l-1-0.8v-0.6L-322.8-112.4z M-322.9-113.7v0.6l-1-0.7v-0.6L-322.9-113.7z
					 M-323.7-116.2v-0.6l0,0l0.7,0.6v0.6L-323.7-116.2z M-322.9-114.9v0.6l-0.9-0.6v-0.6L-322.9-114.9z M-323.2-105.1h-0.8l-0.1-0.1
					v-0.6L-323.2-105.1z M-324.1-106.4v-0.6l1.4,1v0.6L-324.1-106.4z M-320.5-120l-0.4,1.5v0.1h-0.1c-0.5,0.2-1.2,0.5-1.7,0.9
					l1.3-1.4l-0.3-0.3l-1.1,1.3c0.2-0.5,0.4-0.9,0.7-1.3l0.1-0.1h0.1L-320.5-120z M-320.3-120.4l-0.5,0.2l0.5-0.4V-120.4z
					 M-320.1-116.8L-320.1-116.8h-0.1c-0.5-0.2-1-0.2-1.5-0.3l1.1-0.2l-0.1-0.4l-1.3,0.2c0.4-0.2,0.8-0.4,1.1-0.6l0.1-0.1h0.1
					l1.9,0.3L-320.1-116.8z M-321.6-116.2l0.8,0.3l0.1-0.4l-1-0.3c0.5,0,0.9,0.1,1.3,0.2h0.1l0.1,0.1l1,1.7l-0.9-0.2l0,0l0,0
					C-320.5-115.4-321-115.9-321.6-116.2 M-322.1-113.6l-0.4,0.8c0-0.8,0-1.6-0.1-2.3C-322.3-114.6-322.2-114.1-322.1-113.6
					L-322.1-113.6L-322.1-113.6z M-322.4-115.7l0.8,0.8l0.3-0.3l-0.8-0.9c0.6,0.3,1.1,0.8,1.6,1.3v0.1v0.1l-0.2,1.8l-0.9-0.9
					l-0.1-0.1v-0.1C-321.9-114.5-322.1-115.1-322.4-115.7 M-332-99.6c1.7-3.5,0.4-7-1.3-10.4c-1-1.9-2.1-3.8-2.9-5.6
					c-0.5-1.2-1.1-2.6-0.8-3.9c0.1-0.9,0.7-1.8,1.5-2.3c0.7-0.4,1.3-0.7,2.1-1l0,0h0.1l0.3-0.1c-2,3.7-1.2,7.2,1.8,10.4
					c1.7,1.8,4.2,2.8,6.8,3.6l-0.1,4.1h2.3v-0.4c0-1,0-2-0.1-3c1.5,0.5,3,1,4.3,1.7C-321.1-102.3-325.8-99.6-332-99.6L-332-99.6
					L-332-99.6z M-337.7-127v3h-2v-1.7c0-0.5-0.3-0.9-0.7-0.9c-0.4,0-0.7,0.4-0.7,0.9v1.7h-2v-3H-337.7z M-337.7-127.5h-5.5v-2.4
					h5.5V-127.5z M-339.5-132.6h-1.8l0.1-1h1.7L-339.5-132.6z M-339-134.1h-2.8v-0.9h2.8V-134.1z M-340.7-135.5h-0.7v-0.6h0.7
					V-135.5z M-339.5-136.1v0.6h-0.6v-0.6H-339.5z M-340.8-138.2c0-0.2,0.2-0.4,0.4-0.4c0.2,0,0.4,0.2,0.4,0.4l0,0
					c-0.1,0-0.3,0-0.4,0C-340.6-138.2-340.7-138.2-340.8-138.2L-340.8-138.2z M-340.4-137.7L-340.4-137.7c0.7,0,1.3,0.4,1.3,1v0.1
					h-2.6v-0.1C-341.7-137.3-341.1-137.7-340.4-137.7 M-341.6-131.3v-0.8h0.8v0.8h0.8v-0.8h0.8v0.8h0.8v-0.8h0.8v0.8v0.9h-5.5v-0.9
					v-0.8h0.8v0.8H-341.6z M-351.1-123.4L-351.1-123.4h0.1h0.4l0,0c5.3,0,12.3,0,17.8,0c-0.6,0.2-1.2,0.4-1.7,0.6l-0.1,0.1
					c-0.1,0.1-0.3,0.1-0.4,0.2c-0.2,0.1-0.3,0.2-0.5,0.3l0,0c-1.4,0.9-2,2.1-2,3.4c0,0.6,0.1,1.2,0.3,1.8l0,0l0.1,0.2l0,0
					c0.1,0.2,0.2,0.5,0.2,0.7c0.3,0.8,0.7,1.5,1,2.2c0.3,0.5,0.6,1.1,0.8,1.6c1.2,2.3,2.6,4.7,3.1,7.3c0.3,1.5,0.3,3.1-0.2,4.6l0,0
					l0,0c-0.1,0.2-0.1,0.3-0.2,0.5c-0.1,0.1-0.1,0.2-0.2,0.4l0,0l0,0l0,0c-0.5,0-0.9,0-1.4-0.1c-2.5-0.3-5-1.1-7.2-2.4
					C-348.2-106.5-351.4-115.5-351.1-123.4L-351.1-123.4L-351.1-123.4z M-330.2-147.3c0.1,0,0.1,0,0.2,0c1.4,0.1,2.8,0.5,4.1,0.9
					l0,0c0.1,0,0.2,0.1,0.4,0.1c0,0,0,0,0.1,0l0,0c0.1,0.1,0.3,0.1,0.4,0.2l0,0h0.1c0,0,0.1,0,0.1,0.1h0.1c1.3,0.6,2.5,1.3,3.5,2.2
					l0,0c0.2,0.1,0.4,0.3,0.7,0.6l0,0c0.1,0.1,0.1,0.1,0.2,0.2c0,0,0,0,0.1,0.1c1.1,1,2.1,2.2,2.9,3.4l0,0l0,0v0.1l0,0
					c0.1,0.1,0.2,0.3,0.3,0.4l0,0c0-0.1-0.1-0.1-0.1-0.2l0.1,0.2l0,0l0,0l0,0l0,0c0.7,1.2,1.4,2.5,1.9,3.8h-0.1
					c-2.2,0-3.4,1.2-4.2,2.5c0,0-0.3,0.4-0.4,0.7c-0.4,0.6-0.7,1.3-1.1,1.7c0.1-0.3,0.1-0.6,0.2-0.9c0-0.1,0-0.3,0-0.4
					c0-0.2,0-0.5,0-0.5c0-1.1-0.6-2.2-0.9-3.2c0.7-0.2,1.5-0.3,2.2-0.7c0.4-0.3,0.4-0.9,0.2-1.3c0,0,0-0.2-0.1-0.3
					c0-0.1-0.1-0.2-0.2-0.3s-0.2-0.2-0.3-0.3c-0.2-0.4-0.6-0.7-1-0.6c-0.3,0.1-0.7,0.3-1,0.4c-0.4,0.2-0.8,0.4-1.2,0.5
					c-0.1,0-0.3,0.1-0.4,0.1c-0.5-0.3-0.9-0.6-1.5-0.9l0,0c-0.2-0.1-0.3-0.2-0.6-0.3c-0.1-0.1-0.3-0.1-0.5-0.2
					c-1.1-0.4-2.1-0.6-3.2-0.7l0,0c-0.4,0-0.7,0-1.2,0c-0.2,0-0.4,0-0.6,0c-0.4,0-1.1-0.1-1.2,0.5s0.7,0.7,1,0.8l0,0
					c0.3,0.1,0.1,0,1.1,0.3l0,0c1.1,0.3,2.1,0.6,3,1.1c-0.6,0.1-1,0.5-1.2,1.1l-0.1,0.3c-0.1,0.3-0.2,0.7-0.3,1l0,0l-0.1,0.6
					l0.8-0.2c0.3-0.1,0.7-0.1,1-0.2c0.3,0,0.7,0.1,1,0.2l0,0l0,0c0.3,0.1,0.5,0.2,0.8,0.3c0,0,0,0,0.1,0c0.3,0.1,0.5,0.2,0.5,0.3
					l0,0l0,0l0,0l0,0c0.4,0.7,0.6,1.9,0.8,3l0,0c0,0,0,0,0,0.1l0,0c0,0.1,0,0.3,0.1,0.5l0,0c0,0.2,0,0.4,0.1,0.5v0.3
					c-0.3-0.1-0.6-0.1-0.8-0.2c-0.1,0-0.2,0-0.2-0.1l0,0l0,0c-0.3-0.1-0.8-0.2-1-0.3c-0.2,0-0.3-0.1-0.5-0.1
					c-0.8-0.1-1.7,0.4-2.3,0.8c-0.2,0.1-0.4,0.3-0.6,0.5c-0.6,0.6-0.9,0.9-1.3,1.3c-0.1,0.1-0.1,0.2-0.2,0.2
					c-0.3,0.4-0.6,0.8-0.9,1.2c-0.1,0.2-0.3,0.4-0.4,0.6l0,0c-0.2,0.2-0.3,0.5-0.4,0.6c-0.2,0.3-0.3,0.6-0.4,0.9l0,0h-0.3h-0.5h-0.5
					h-0.1h-0.2h-0.7h-0.5h-0.3h-0.2h-0.5h-0.2l0,0h-0.7v-4.8v-0.4v-0.6v-0.8v-1.2v-0.8h-1.1h-0.5h-0.2l-0.1-1h0.2h0.3h0.1v-0.3v-1.6
					h-0.5v-0.6h0.4v-0.6c0-0.6-0.4-1.1-1-1.3v-0.2c0-0.4-0.3-0.7-0.6-0.8c-0.1,0-0.2,0-0.2,0c-0.1,0-0.2,0-0.2,0l0,0
					c-0.4,0.1-0.7,0.4-0.7,0.9v0.2c-0.5,0.2-0.9,0.7-0.9,1.3v0.6h0.4v0.6h-0.5v1.9h0.2h0.3h0.1l-0.1,1h-0.1h-0.5h-1.2v0.6v1.2v1.1
					v0.6v5.1l0,0h-1.4h-2.4l0,0h-3.7c0-0.1,0-0.2,0-0.4c0-0.1,0-0.2,0-0.4c0-0.5,0-0.6,0.1-1.2l0,0c0-0.1,0-0.2,0-0.3
					c0-0.1,0-0.1,0-0.2c0.1-1,0.1-1.3,0.3-2.2c0-0.2,0-0.3,0.1-0.4l0,0c0.1-0.7,0.2-1.2,0.4-1.7c0.1-0.3,0.1-0.5,0.2-0.7
					c0,0,0,0,0-0.1c0.1-0.3,0.1-0.5,0.2-0.9s0.2-0.8,0.4-1.2c0.1-0.3,0.2-0.6,0.3-0.8c0,0,0,0,0-0.1c0.3-0.8,0.3-0.9,0.7-1.7
					c0,0,0-0.1,0.1-0.1c0.4-0.9,0.8-1.7,1.3-2.5l0,0c0.3-0.5,0.8-1.2,1.3-1.8c0.1-0.1,0.2-0.2,0.2-0.3c0,0,0-0.1,0.1-0.1
					c0.5-0.7,1-1.2,1.6-1.7l0,0c0.8-0.7,1.6-1.4,2.6-2c0,0,0,0,0.1,0c0.6-0.4,0.3-0.2,1.1-0.6c0.1-0.1,0.2-0.1,0.3-0.1
					c1-0.5,2-0.9,3.1-1.2c0,0,0,0,0.1,0c0.5-0.2,0.9-0.2,1.3-0.3c1.1-0.2,2.3-0.3,3.5-0.3c0,0,0.1,0,0.2,0c0.2,0,0.5,0,0.7,0
					c0.1,0,0.2,0,0.2,0l0,0C-330.6-147.3-330.4-147.3-330.2-147.3 M-315.3-94.4c-3.7,2-7.6,3.8-11.2,6c-1.8,1.1-3.8,2.4-5.4,4
					c-1.6-1.6-3.6-2.9-5.4-4c-3.6-2.2-7.4-4.1-11.2-6c-4.7-2.5-13.1-7-14.8-12.3c-0.2-0.7-0.3-1.4-0.3-2.1c0-4.4,1.7-8.6,3.4-12.6
					c1.7-4.1,3.7-8.6,3.2-13.1c-0.4-3.8-2.5-6.7-5.3-9l4.2-5.2l10.2,10.1c-6.5,10.9-4.9,28.4,4.8,36.1c3.2,2.5,7.1,3.7,11.2,3.7
					c7.1,0,12.3-3.5,15.6-8.6l8.7,8.6C-310.4-97-313.3-95.5-315.3-94.4 M-303-121.7c-1.6-4-3.6-8.4-3.1-12.8
					c0.4-3.6,2.3-6.3,5.1-8.6l0.4-0.4l-7.8-9.8h-0.2c-15.4-2.8-31.1-2.5-46.5,0h-0.2l-7.8,9.8l0.4,0.4c2.7,2.3,4.7,5,5.1,8.6
					c0.5,4.4-1.5,8.8-3.1,12.8c-1.7,4.1-3.4,8.3-3.4,12.8c0,0.8,0.1,1.5,0.3,2.3c1.7,5.6,10.1,10.1,15.1,12.7c3.7,2,7.5,3.8,11.1,6
					c1.9,1.1,3.7,2.4,5.3,3.9l0.4,0.4l0.4-0.4c1.6-1.5,3.5-2.8,5.3-3.9c3.6-2.2,7.4-4,11.1-6c5.4-2.8,15.4-8.1,15.4-15
					C-299.6-113.4-301.3-117.6-303-121.7"/>
			</g>
			<g id="g194">
				<g id="g200" transform="translate(286.2412,419.656)">
					<path id="path202" class="st22" d="M-238.1-397.7l-6,0.1c0,0,0.1-2.5,0.4-3.4c0.3-0.8,0.8-1.7,1.5-2.1s1.4-0.6,2.2-0.3
						c0.7,0.3,1.2,0.6,1.7,1.4s0.6,1.6,0.8,2.4c0.1,0.9,0,1.9,0,1.9H-238.1z"/>
				</g>
				<g id="g204" transform="translate(311.7573,449.9671)">
					<path id="path206" class="st22" d="M-257.4-435.4c-1,0.1-1.8,0.7-1.7,1.4c0.1,0.8,0.5,4.4,0.5,4.4l3.9,0.3l-0.7-5
						C-255.5-434.2-256.5-435.4-257.4-435.4"/>
				</g>
			</g>
			<g id="g676" transform="translate(317.4707,428.9344)">
				<path id="path678" class="st23" d="M-261.7-409.2c-0.1-1.3-0.3-2.2-0.4-3.5c-0.5-0.8-1.4-0.9-1.7-0.1c0.2,1.3,0.3,2.3,0.5,3.6
					C-262.9-409.3-262.4-409.3-261.7-409.2"/>
			</g>
			<g id="g680" transform="translate(284.9687,420.1238)">
				<path id="path682" class="st23" d="M-237.2-398.3v-0.5c-0.1-1.7-0.3-4.4-2.4-4.4c-2.1,0-2.2,2.8-2.3,4.5v0.4H-237.2z"/>
			</g>
		</g>
	</g>
</g>
<g id="g532">
	<g id="g538" transform="translate(228.3198,222.3909)">
		<path id="path540" class="st14" d="M-194.3-152.3c-2.6-5.2-1.2-8.4,2.3-10.4c-1.6,2.9,0.7,5.3,4.2,7.9
			C-190.3-154.2-192.6-153.5-194.3-152.3L-194.3-152.3z"/>
	</g>
</g>
</svg>
